<?xml version="1.0" encoding="UTF-8"?>
<svg xmlns="http://www.w3.org/2000/svg" xmlns:xlink="http://www.w3.org/1999/xlink" viewBox="0 0 24 24" width="24px" height="24px">
<g id="surface13354139">
<path style=" stroke:none;fill-rule:nonzero;fill:rgb(100%,100%,100%);fill-opacity:1;" d="M 24 4.300781 C 23.300781 5.300781 22.5 6.199219 21.5 6.898438 C 21.5 7.101562 21.5 7.300781 21.5 7.5 C 21.5 8.535156 21.375 9.59375 21.132812 10.640625 C 20.167969 10.230469 19.109375 10 18 10 C 13.601562 10 10 13.601562 10 18 C 10 19.128906 10.234375 20.203125 10.660156 21.175781 C 9.671875 21.386719 8.617188 21.5 7.5 21.5 C 4.800781 21.5 2.199219 20.699219 0 19.300781 C 0.398438 19.398438 0.800781 19.398438 1.199219 19.398438 C 3.5 19.398438 5.601562 18.601562 7.300781 17.300781 C 5.101562 17.300781 3.300781 15.898438 2.699219 13.898438 C 3 14 3.300781 14 3.601562 14 C 4.101562 14 4.5 13.898438 4.898438 13.800781 C 2.699219 13.398438 1 11.398438 1 9 C 1 8.898438 1 8.898438 1 8.898438 C 1.601562 9.199219 2.398438 9.398438 3.199219 9.5 C 1.898438 8.601562 1 7.101562 1 5.398438 C 1 4.5 1.199219 3.601562 1.699219 2.898438 C 4.101562 5.898438 7.699219 7.800781 11.800781 8 C 11.699219 7.699219 11.699219 7.300781 11.699219 6.898438 C 11.699219 4.199219 13.898438 2 16.601562 2 C 18 2 19.300781 2.601562 20.300781 3.601562 C 21.398438 3.398438 22.398438 3 23.398438 2.398438 C 23 3.5 22.199219 4.5 21.199219 5.101562 C 22.199219 5 23.101562 4.699219 24 4.300781 "/>
<path style=" stroke:none;fill-rule:nonzero;fill:rgb(80.000001%,80.000001%,80.000001%);fill-opacity:1;" d="M 18 12 C 14.699219 12 12 14.699219 12 18 C 12 21.300781 14.699219 24 18 24 C 21.300781 24 24 21.300781 24 18 C 24 14.699219 21.300781 12 18 12 Z M 21 19 L 19 19 L 19 21 L 17 21 L 17 19 L 15 19 L 15 17 L 17 17 L 17 15 L 19 15 L 19 17 L 21 17 Z M 21 19 "/>
</g>
</svg>
